<svg width="52" height="52" viewBox="0 0 52 52" fill="none" xmlns="http://www.w3.org/2000/svg">
<rect width="52" height="52" rx="4" fill="#1A1515"/>
<path d="M17.5868 27.7788C19.3662 29.5478 22.4695 31.9999 26.0002 31.9999C29.5308 31.9999 32.6335 29.5478 34.413 27.7788C34.8823 27.3123 35.1177 27.0782 35.2671 26.6201C35.3738 26.2933 35.3738 25.7067 35.2671 25.3799C35.1177 24.9218 34.8823 24.6877 34.413 24.2211C32.6335 22.4521 29.5308 20 26.0002 20C22.4695 20 19.3662 22.4521 17.5868 24.2211C17.1171 24.688 16.8823 24.9216 16.7328 25.3799C16.6262 25.7067 16.6262 26.2933 16.7328 26.6201C16.8823 27.0784 17.1171 27.3119 17.5868 27.7788Z" stroke="#FAFAFA" stroke-width="2" stroke-linecap="round" stroke-linejoin="round"/>
<path d="M24 26C24 27.1046 24.8954 28 26 28C27.1046 28 28 27.1046 28 26C28 24.8954 27.1046 24 26 24C24.8954 24 24 24.8954 24 26Z" stroke="#FAFAFA" stroke-width="2" stroke-linecap="round" stroke-linejoin="round"/>
</svg>
