<svg width="62" height="62" viewBox="0 0 62 62" fill="none" xmlns="http://www.w3.org/2000/svg">
<path d="M42.5833 37.7387V29.8791C42.5833 29.1222 42.5827 28.7435 42.4906 28.3912C42.4091 28.0791 42.2752 27.7837 42.094 27.5167C41.8895 27.2155 41.6052 26.9657 41.0355 26.4672L34.2355 20.5172C33.1778 19.5918 32.649 19.1292 32.0538 18.9532C31.5293 18.7981 30.9704 18.7981 30.4459 18.9532C29.8512 19.1291 29.3231 19.5912 28.267 20.5153L21.4648 26.4672C20.8951 26.9657 20.6109 27.2155 20.4064 27.5167C20.2252 27.7837 20.0903 28.0791 20.0087 28.3912C19.9167 28.7435 19.9167 29.1222 19.9167 29.8791V37.7387C19.9167 39.0589 19.9167 39.7187 20.1323 40.2394C20.4199 40.9336 20.9711 41.4859 21.6654 41.7735C22.186 41.9891 22.8461 41.9891 24.1663 41.9891C25.4865 41.9891 26.1473 41.9891 26.668 41.7735C27.3622 41.4859 27.9133 40.9338 28.2008 40.2395C28.4165 39.7188 28.4167 39.0588 28.4167 37.7386V36.3219C28.4167 34.7571 29.6852 33.4886 31.25 33.4886C32.8148 33.4886 34.0833 34.7571 34.0833 36.3219V37.7386C34.0833 39.0588 34.0833 39.7188 34.299 40.2395C34.5866 40.9338 35.1378 41.4859 35.832 41.7735C36.3527 41.9891 37.0128 41.9891 38.333 41.9891C39.6531 41.9891 40.3139 41.9891 40.8346 41.7735C41.5289 41.4859 42.0799 40.9336 42.3675 40.2394C42.5832 39.7187 42.5833 39.0589 42.5833 37.7387Z" stroke="#333333" stroke-width="2.1" stroke-linecap="round" stroke-linejoin="round"/>
</svg>
