<svg width="53" height="53" viewBox="0 0 53 53" fill="none" xmlns="http://www.w3.org/2000/svg">
<circle cx="26.5" cy="26.5" r="26.5" fill="#DFF0FD"/>
<g filter="url(#filter0_dd_1740_5100)">
<path d="M15.5 39V37.8324L21.1194 37.2851H22.5885L28.318 37.8324V39H15.5ZM18.9157 39C19.0259 34.9135 19.0259 30.6446 19.0259 26.3757V24.6608C19.0259 20.3919 19.0259 16.1959 18.9157 12H24.3514C24.2412 16.123 24.2412 20.3919 24.2412 24.6608V27.2149C24.2412 30.6811 24.2412 34.8041 24.3514 39H18.9157ZM21.6336 28.127V26.8135H25.7838C30.485 26.8135 32.5785 24.0041 32.5785 19.9541C32.5785 15.5757 30.4482 13.3135 26.2613 13.3135H21.6336V12H26.3715C34.1945 12 37.5 14.9554 37.5 19.9541C37.5 24.5149 34.3047 28.127 25.9307 28.127H21.6336ZM15.5 13.2041V12H21.6336V13.6784H21.1194L15.5 13.2041Z" fill="#191414" style="mix-blend-mode:luminosity" shape-rendering="crispEdges"/>
</g>
<defs>
<filter id="filter0_dd_1740_5100" x="11.5" y="8" width="30" height="39" filterUnits="userSpaceOnUse" color-interpolation-filters="sRGB">
<feFlood flood-opacity="0" result="BackgroundImageFix"/>
<feColorMatrix in="SourceAlpha" type="matrix" values="0 0 0 0 0 0 0 0 0 0 0 0 0 0 0 0 0 0 127 0" result="hardAlpha"/>
<feOffset/>
<feGaussianBlur stdDeviation="2"/>
<feComposite in2="hardAlpha" operator="out"/>
<feColorMatrix type="matrix" values="0 0 0 0 0.807361 0 0 0 0 0.875972 0 0 0 0 0.818339 0 0 0 0.25 0"/>
<feBlend mode="normal" in2="BackgroundImageFix" result="effect1_dropShadow_1740_5100"/>
<feColorMatrix in="SourceAlpha" type="matrix" values="0 0 0 0 0 0 0 0 0 0 0 0 0 0 0 0 0 0 127 0" result="hardAlpha"/>
<feOffset dy="4"/>
<feGaussianBlur stdDeviation="2"/>
<feComposite in2="hardAlpha" operator="out"/>
<feColorMatrix type="matrix" values="0 0 0 0 0.141042 0 0 0 0 0.448208 0 0 0 0 0.908958 0 0 0 0.25 0"/>
<feBlend mode="normal" in2="effect1_dropShadow_1740_5100" result="effect2_dropShadow_1740_5100"/>
<feBlend mode="normal" in="SourceGraphic" in2="effect2_dropShadow_1740_5100" result="shape"/>
</filter>
</defs>
</svg>
