<svg width="76" height="78" viewBox="0 0 76 78" fill="none" xmlns="http://www.w3.org/2000/svg">
<rect width="76" height="78" fill="#211919"/>
<path d="M41.9167 46.3333H50.4583V54.875M35.0833 32.6667H26.5417V24.125M51.1717 34.3808C50.2138 32.0101 48.6101 29.9556 46.5428 28.4509C44.4756 26.9462 42.028 26.0512 39.4776 25.8684C36.9273 25.6856 34.3762 26.2218 32.1154 27.4163C29.8547 28.6108 27.9747 30.416 26.6885 32.6259M25.8276 44.62C26.7855 46.9907 28.3892 49.0452 30.4564 50.5499C32.5237 52.0546 34.9738 52.9485 37.5242 53.1313C40.0745 53.3141 42.6235 52.7779 44.8843 51.5835C47.145 50.389 49.0238 48.5841 50.3099 46.3742" stroke="#FAFAFA" stroke-width="2" stroke-linecap="round" stroke-linejoin="round"/>
</svg>
