<svg width="52" height="52" viewBox="0 0 52 52" fill="none" xmlns="http://www.w3.org/2000/svg">
<path d="M17.0001 31.0001C17 30.9355 17 30.8689 17 30.8002V21.2002C17 20.0801 17 19.5196 17.218 19.0918C17.4097 18.7155 17.7155 18.4097 18.0918 18.218C18.5196 18 19.0801 18 20.2002 18H31.8002C32.9203 18 33.4801 18 33.9079 18.218C34.2842 18.4097 34.5905 18.7155 34.7822 19.0918C35 19.5192 35 20.079 35 21.1969V30.8031C35 31.2881 35 31.6679 34.9822 31.9774M17.0001 31.0001C17.0008 31.9884 17.0134 32.5058 17.218 32.9074C17.4097 33.2837 17.7155 33.5905 18.0918 33.7822C18.5192 34 19.079 34 20.1969 34H31.8036C32.9215 34 33.4805 34 33.9079 33.7822C34.2842 33.5905 34.5905 33.2837 34.7822 32.9074C34.9055 32.6654 34.959 32.3813 34.9822 31.9774M17.0001 31.0001L21.768 25.4375L21.7694 25.436C22.1923 24.9426 22.4041 24.6955 22.6553 24.6064C22.8759 24.5282 23.1169 24.53 23.3364 24.6113C23.5866 24.704 23.7951 24.9539 24.2119 25.4541L26.8831 28.6595C27.269 29.1226 27.463 29.3554 27.6986 29.4489C27.9065 29.5313 28.1357 29.5406 28.3501 29.4773C28.5942 29.4053 28.8091 29.1904 29.2388 28.7607L29.7358 28.2637C30.1733 27.8262 30.3921 27.6076 30.6397 27.5361C30.8571 27.4734 31.0896 27.4869 31.2988 27.5732C31.537 27.6716 31.7302 27.9124 32.1167 28.3955L34.9822 31.9774M34.9822 31.9774L35 31.9996M29 24C28.4477 24 28 23.5523 28 23C28 22.4477 28.4477 22 29 22C29.5523 22 30 22.4477 30 23C30 23.5523 29.5523 24 29 24Z" stroke="#333333" stroke-width="2" stroke-linecap="round" stroke-linejoin="round"/>
</svg>
