<svg width="92" height="42" viewBox="0 0 92 42" fill="none" xmlns="http://www.w3.org/2000/svg">
<path d="M11.811 22V21.424L14.565 21.154H15.285L18.093 21.424V22H11.811ZM13.485 22C13.539 19.984 13.539 17.878 13.539 15.772V14.926C13.539 12.82 13.539 10.75 13.485 8.68H16.149C16.095 10.714 16.095 12.82 16.095 14.926V16.186C16.095 17.896 16.095 19.93 16.149 22H13.485ZM14.817 16.636V15.988H16.851C19.155 15.988 20.181 14.602 20.181 12.604C20.181 10.444 19.137 9.328 17.085 9.328H14.817V8.68H17.139C20.973 8.68 22.593 10.138 22.593 12.604C22.593 14.854 21.027 16.636 16.923 16.636H14.817ZM11.811 9.274V8.68H14.817V9.508H14.565L11.811 9.274ZM23.4602 22V21.478L25.4762 21.28H26.6102L28.6982 21.478V22H23.4602ZM24.8282 22C24.8642 20.758 24.8822 19.138 24.8822 17.788V8.554L23.4602 8.446V7.96L27.0962 7.276L27.3662 7.438L27.2942 10.3V17.788C27.2942 19.138 27.3122 20.758 27.3662 22H24.8282ZM32.472 22.306C30.978 22.306 29.898 21.406 29.898 19.894C29.898 18.328 30.78 17.41 33.534 16.654C34.47 16.366 35.784 16.042 36.756 15.808V16.276C35.784 16.528 34.74 16.798 34.11 17.032C32.814 17.554 32.148 18.364 32.148 19.57C32.148 20.65 32.742 21.19 33.624 21.19C34.2 21.19 34.83 20.884 36.054 19.57L36.324 20.524H35.694C34.65 21.676 33.93 22.306 32.472 22.306ZM37.512 22.288C36.27 22.288 35.64 21.532 35.496 20.326V15.142C35.496 13.234 35.01 12.676 33.624 12.676C32.994 12.676 32.382 12.82 31.518 13.162L32.652 12.712L32.454 14.098C32.4 15.142 31.878 15.52 31.284 15.52C30.708 15.52 30.312 15.232 30.186 14.692C30.402 13.09 31.896 12.082 34.434 12.082C36.828 12.082 37.872 13.108 37.872 15.592V20.308C37.872 21.136 38.07 21.406 38.466 21.406C38.754 21.406 38.952 21.262 39.276 20.794L39.582 21.046C39.15 21.91 38.52 22.288 37.512 22.288ZM42.6953 13.072V12.37H46.2413V13.072H42.6953ZM44.0633 22.306C42.3353 22.306 41.4533 21.496 41.4533 19.642C41.4533 18.958 41.4713 18.49 41.4713 17.788V13.072H39.9053V12.514L41.8673 12.316L41.5433 12.55L42.3713 9.49H43.9373L43.9013 12.658V19.786C43.9013 20.794 44.3333 21.244 45.0893 21.244C45.5573 21.244 45.8813 21.064 46.3673 20.704L46.6553 20.992C46.1153 21.838 45.2873 22.306 44.0633 22.306ZM49.709 13.072V12.37H53.255V13.072H49.709ZM51.077 22.306C49.349 22.306 48.467 21.496 48.467 19.642C48.467 18.958 48.485 18.49 48.485 17.788V13.072H46.919V12.514L48.881 12.316L48.557 12.55L49.385 9.49H50.951L50.915 12.658V19.786C50.915 20.794 51.347 21.244 52.103 21.244C52.571 21.244 52.895 21.064 53.381 20.704L53.669 20.992C53.129 21.838 52.301 22.306 51.077 22.306ZM59.3862 22.306C56.4702 22.306 54.4002 20.506 54.4002 17.176C54.4002 13.936 56.7042 12.082 59.2602 12.082C61.8882 12.082 63.3282 13.828 63.3282 16.06C63.3282 16.492 63.2922 16.816 63.2022 17.14H55.4622V16.528H60.0522C60.8082 16.528 61.0422 16.15 61.0422 15.16C61.0422 13.576 60.3042 12.676 59.1702 12.676C57.9462 12.676 56.9562 14.008 56.9562 16.924C56.9562 19.894 58.3242 21.154 60.1962 21.154C61.4742 21.154 62.3022 20.65 62.9502 19.786L63.2742 20.038C62.5002 21.478 61.1682 22.306 59.3862 22.306ZM64.629 22V21.478L66.573 21.262H68.121L70.119 21.478V22H64.629ZM65.907 22C65.943 21.1 65.961 19.03 65.961 17.788V16.42C65.961 15.214 65.943 14.53 65.907 13.666L64.503 13.54V13.09L68.031 12.1L68.265 12.262L68.391 14.836V17.788C68.391 19.03 68.409 21.1 68.445 22H65.907ZM68.391 16.24L67.797 15.16H68.283C68.787 13.18 70.101 12.082 71.289 12.082C72.099 12.082 72.747 12.388 72.927 13.288C72.909 14.044 72.549 14.602 71.739 14.602C71.127 14.602 70.731 14.242 70.281 13.648L69.867 13.18L70.533 13.27C69.489 13.81 68.859 14.656 68.391 16.24Z" fill="#191414"/>
<path d="M17.5833 38.9444C21.8778 38.3448 26.14 37.568 30.3805 36.6831C29.5595 36.5831 28.7383 36.4848 27.9167 36.3889C27.3696 36.325 -0.635715 33.2632 1.97222 38.1389C3.91176 41.765 15.135 39.2863 17.5833 38.9444Z" fill="#191414"/>
<path d="M70.5 26C62.1957 29.1337 53.4299 31.2043 44.8333 33.3333C35.8279 35.5636 26.7799 37.6604 17.5833 38.9444C15.135 39.2863 3.91176 41.765 1.97222 38.1389C-0.635714 33.2632 27.3696 36.325 27.9167 36.3889C38.2557 37.5961 48.5356 39.1798 58.9444 39.7222C69.7028 40.2828 79.8816 39.4529 90.5 38.5" stroke="#191414" stroke-width="1.9" stroke-linecap="round"/>
</svg>
