<svg width="52" height="52" viewBox="0 0 52 52" fill="none" xmlns="http://www.w3.org/2000/svg">
<rect width="52" height="52" rx="4" fill="black"/>
<path d="M24.3078 27.6923L29.1539 22.8462M34.1113 19.8887L30.0207 33.1833C29.6541 34.3747 29.4706 34.9707 29.1544 35.1683C28.8802 35.3396 28.5406 35.3683 28.2419 35.2443C27.8975 35.1014 27.618 34.5433 27.0603 33.428L24.4694 28.2461C24.3809 28.0691 24.3366 27.981 24.2775 27.9043C24.225 27.8363 24.1645 27.7749 24.0965 27.7225C24.0215 27.6647 23.9349 27.6214 23.7658 27.5369L18.5719 24.9399C17.4566 24.3823 16.8989 24.1032 16.756 23.7588C16.6321 23.4601 16.6603 23.1202 16.8317 22.846C17.0293 22.5297 17.6252 22.346 18.817 21.9793L32.1116 17.8887C33.0486 17.6004 33.5173 17.4563 33.8337 17.5725C34.1094 17.6737 34.3267 17.8908 34.4279 18.1665C34.544 18.4828 34.3999 18.9513 34.1119 19.8873L34.1113 19.8887Z" stroke="#FAFAFA" stroke-width="2" stroke-linecap="round" stroke-linejoin="round"/>
</svg>
